# xmcd
#
# Track frame offsets:
#	150
#	14172
#	24120
#	39600
#	52890
#	69096
#	85099
#	103723
#	123161
#	134540
#	147167
#	162837
#	175881
#	189675
#	199991
#	211154
#	229001
#	241776
#	251522
#	262108
#	274822
#	289179
#	303933
#	316949
#	329828
#	335862
#
# Disc length: 4653 seconds
#
# Revision: 0
# Processed by: cddbd v1.5.2PL0 Copyright (c) Steve Scherf et al.
# Submitted via: dBpowerAMP V4.0
#
DISCID=7f122b1a
DTITLE=Various Artist - Country Songs
DYEAR=1900
DGENRE=Country
TTITLE0=John Denver - Take Me Home 
TTITLE1=Parter Wagner - Green Green Grass Of Home
TTITLE2=Jennifer Warners - I Know A Heartache
TTITLE3=Scott Mekenzie - San Francisco
TTITLE4=Eddie Rabbit - The Room At The Top Of The Staires
TTITLE5=Lobo - Stoney
TTITLE6=Kenny Rogers and Dolly - Island In The Stream
TTITLE7=Cowboy Twitty - Don't Cry Jani
TTITLE8=Freddy Fender - Before The Next Tear Drop Falls
TTITLE9=Lynn Anderson - Rose Garden
TTITLE10=Willie Wilson - Alway's On My Mind
TTITLE11=John Michael Montgomary - I Swear
TTITLE12=Lorretta Lynn - Coal Miner's Daughter
TTITLE13=Slim Whiteman - Rose Marie
TTITLE14=Jim Groce - !'ll Have To Say I Love In The Song
TTITLE15=Don McClean - Vincent
TTITLE16=B.J. Thomas - Raindrops Keep Falling
TTITLE17=Hank Locklin - Please Help Me I'm Falling
TTITLE18=Jim Reeves - He'll Have To Go
TTITLE19=Johnny Harton - North To Alaska
TTITLE20=Alae Campell - Rihnestone Cowboy
TTITLE21=The Kingston Trio - Tom Doaley
TTITLE22=Kenny Rogers - Ruby Don't Take Your Love To Town
TTITLE23=Hank Williams - Jambalaya
TTITLE24=Merle Hanggard - Nana Tried
TTITLE25=Lynn Anderson - Top Of The World
EXTD=
EXTT0=
EXTT1=
EXTT2=
EXTT3=
EXTT4=
EXTT5=
EXTT6=
EXTT7=
EXTT8=
EXTT9=
EXTT10=
EXTT11=
EXTT12=
EXTT13=
EXTT14=
EXTT15=
EXTT16=
EXTT17=
EXTT18=
EXTT19=
EXTT20=
EXTT21=
EXTT22=
EXTT23=
EXTT24=
EXTT25=
PLAYORDER=
